<?xml version="1.0" encoding="iso-8859-1"?>
<!-- Generator: Adobe Illustrator 19.0.0, SVG Export Plug-In . SVG Version: 6.00 Build 0)  -->
<svg version="1.1" id="Layer_1" xmlns="http://www.w3.org/2000/svg" xmlns:xlink="http://www.w3.org/1999/xlink" x="0px" y="0px"
	 viewBox="0 0 512 512" style="enable-background:new 0 0 512 512;" xml:space="preserve">
<path style="fill:#4B92B9;" d="M120.376,7.837h271.248c11.542,0,20.898,9.356,20.898,20.898v454.531
	c0,11.542-9.356,20.898-20.898,20.898H120.376c-11.542,0-20.898-9.356-20.898-20.898V28.735
	C99.478,17.193,108.834,7.837,120.376,7.837z"/>
<circle cx="124.113" cy="32.475" r="11.383"/>
<circle cx="387.887" cy="32.475" r="11.383"/>
<circle cx="124.113" cy="479.525" r="11.383"/>
<circle cx="387.887" cy="479.525" r="11.383"/>
<circle cx="124.113" cy="256" r="11.383"/>
<circle cx="387.887" cy="256" r="11.383"/>
<circle style="fill:#79CAE8;" cx="256" cy="129.609" r="78.367"/>
<circle style="fill:#CAF9F4;" cx="256" cy="129.609" r="41.796"/>
<circle style="fill:#4B92B9;" cx="256" cy="129.609" r="15.673"/>
<circle style="fill:#79CAE8;" cx="256" cy="356.268" r="104.49"/>
<circle style="fill:#CAF9F4;" cx="256" cy="356.268" r="78.367"/>
<circle style="fill:#79CAE8;" cx="256" cy="356.268" r="41.796"/>
<circle style="fill:#4B92B9;" cx="256" cy="356.268" r="15.673"/>
<path d="M391.624,0H120.376c-15.845,0-28.735,12.891-28.735,28.735v454.531c0,15.844,12.89,28.735,28.735,28.735h271.247
	c15.844,0,28.735-12.891,28.735-28.735V28.735C420.358,12.891,407.467,0,391.624,0z M404.685,483.265
	c0,7.202-5.859,13.061-13.061,13.061H120.376c-7.202,0-13.061-5.859-13.061-13.061V28.735c0-7.202,5.859-13.061,13.061-13.061
	h271.247c7.202,0,13.061,5.859,13.061,13.061L404.685,483.265L404.685,483.265z"/>
<path d="M256,179.245c27.367,0,49.633-22.266,49.633-49.633S283.367,79.98,256,79.98s-49.633,22.266-49.633,49.633
	S228.633,179.245,256,179.245z M256,95.653c18.726,0,33.959,15.234,33.959,33.959S274.726,163.571,256,163.571
	c-18.725,0-33.959-15.234-33.959-33.959S237.275,95.653,256,95.653z"/>
<path d="M256,153.122c12.963,0,23.51-10.547,23.51-23.51s-10.547-23.51-23.51-23.51c-12.964,0-23.51,10.547-23.51,23.51
	S243.037,153.122,256,153.122z M256,121.776c4.322,0,7.837,3.515,7.837,7.837s-3.515,7.837-7.837,7.837
	c-4.322,0-7.837-3.515-7.837-7.837S251.679,121.776,256,121.776z"/>
<path d="M189.788,184.741l-9.521,9.52l11.082,11.083l9.521-9.521c14.955,12.474,34.178,19.993,55.129,19.993
	c20.95,0,40.173-7.519,55.128-19.992l9.521,9.52l11.083-11.083l-9.521-9.52c12.473-14.956,19.992-34.179,19.992-55.129
	s-7.519-40.173-19.992-55.129l9.521-9.52L320.648,53.88l-9.521,9.52C296.173,50.927,276.95,43.408,256,43.408
	s-40.173,7.519-55.129,19.993l-9.521-9.521l-11.082,11.083l9.521,9.52c-12.473,14.956-19.992,34.178-19.992,55.129
	S177.316,169.785,189.788,184.741z M256,59.082c38.891,0,70.531,31.64,70.531,70.531S294.891,200.143,256,200.143
	s-70.531-31.64-70.531-70.531S217.11,59.082,256,59.082z"/>
<path d="M340.738,282.611l9.467-9.467l-11.083-11.083l-9.467,9.467c-19.734-17.176-45.5-27.588-73.654-27.588
	c-28.154,0-53.921,10.414-73.655,27.588l-9.467-9.467l-11.083,11.083l9.467,9.467c-17.175,19.734-27.589,45.5-27.589,73.654
	c0,28.154,10.413,53.92,27.589,73.654l-9.467,9.467l11.083,11.083l9.467-9.467c19.734,17.174,45.5,27.588,73.655,27.588
	c28.154,0,53.92-10.413,73.654-27.588l9.467,9.467l11.083-11.083l-9.467-9.467c17.175-19.734,27.588-45.5,27.588-73.654
	C368.327,328.112,357.913,302.344,340.738,282.611z M256,452.918c-53.295,0-96.653-43.358-96.653-96.653
	s43.358-96.653,96.653-96.653s96.653,43.358,96.653,96.653S309.295,452.918,256,452.918z"/>
<path d="M256,270.061c-47.533,0-86.204,38.672-86.204,86.204s38.671,86.204,86.204,86.204c47.532,0,86.204-38.672,86.204-86.204
	S303.532,270.061,256,270.061z M256,426.796c-38.891,0-70.531-31.639-70.531-70.531s31.64-70.531,70.531-70.531
	s70.531,31.639,70.531,70.531S294.891,426.796,256,426.796z"/>
<path d="M256,306.633c-27.367,0-49.633,22.266-49.633,49.633s22.266,49.633,49.633,49.633s49.633-22.266,49.633-49.633
	S283.368,306.633,256,306.633z M256,390.224c-18.725,0-33.959-15.234-33.959-33.959s15.235-33.959,33.959-33.959
	c18.726,0,33.959,15.234,33.959,33.959S274.726,390.224,256,390.224z"/>
<path d="M256,332.755c-12.964,0-23.51,10.547-23.51,23.51s10.546,23.51,23.51,23.51c12.963,0,23.51-10.547,23.51-23.51
	S268.963,332.755,256,332.755z M256,364.102c-4.322,0-7.837-3.515-7.837-7.837s3.515-7.837,7.837-7.837
	c4.322,0,7.837,3.515,7.837,7.837S260.322,364.102,256,364.102z"/>
<g>
</g>
<g>
</g>
<g>
</g>
<g>
</g>
<g>
</g>
<g>
</g>
<g>
</g>
<g>
</g>
<g>
</g>
<g>
</g>
<g>
</g>
<g>
</g>
<g>
</g>
<g>
</g>
<g>
</g>
</svg>
